# WaveFront *.obj file (generated by CINEMA 4D)

mtllib ./SM_GroundCircle.mtl

v -14.72669982910156 -35.54336929321289 -83.39891052246094
v -14.72669887542725 12.10526371002197 -83.39891052246094
v -11.97823810577393 12.10526371002197 -67.83407592773438
v -11.97823810577393 -35.54336929321289 -67.83407592773438
v -28.98503684997559 -35.54336929321289 -79.57463073730469
v -28.98503684997559 12.10526371002197 -79.57463073730469
v -23.57552528381348 12.10526371002197 -64.72352600097656
v -23.57552528381348 -35.54336929321289 -64.72352600097656
v -42.36267852783203 -35.54336929321289 -73.33251190185547
v -42.36267852783203 12.10526371002197 -73.33251190185547
v -34.45648193359375 12.10526371002197 -59.64638137817383
v -34.45648193359375 -35.54336929321289 -59.64638137817383
v -54.45315170288086 -35.54336929321289 -64.86222839355469
v -54.45315170288086 12.10526371002197 -64.86222839355469
v -44.29049682617188 12.10526371002197 -52.75691604614258
v -44.29049682617188 -35.54336929321289 -52.75691604614258
v -64.88909149169922 -35.54336929321289 -54.42113494873047
v -64.88909149169922 12.10526371002197 -54.42113494873047
v -52.77876663208008 12.10526371002197 -44.26445388793945
v -52.77876663208008 -35.54336929321289 -44.26445388793945
v -73.35341644287109 -35.54336929321289 -42.32648086547852
v -73.35341644287109 12.10526466369629 -42.32648086547852
v -59.66337966918945 12.10526371002197 -34.42704010009766
v -59.66337966918945 -35.54336929321289 -34.42704010009766
v -64.73515319824219 -35.54336929321289 -23.5435791015625
v -79.58892822265625 -35.54336929321289 -28.94576072692871
v -79.58892822265625 12.10526466369629 -28.94576072692871
v -64.73515319824219 12.10526371002197 -23.5435791015625
v -67.83998107910156 -35.54336929321289 -11.94475841522217
v -83.40617370605469 -35.54336929321289 -14.68553829193115
v -83.40617370605469 12.10526466369629 -14.68553829193115
v -67.83998107910156 12.10526371002197 -11.94475841522217
v -84.68916320800781 -35.54336929321289 0.02089811675251
v -84.68916320800781 12.10526466369629 0.02089811675251
v -68.88352203369141 12.10526371002197 0.01699787564576
v -68.88352203369141 -35.54336929321289 0.0169978775084
v -83.39891052246094 -35.54336929321289 14.72669887542725
v -83.39891052246094 12.10526466369629 14.72669887542725
v -67.83407592773438 12.10526371002197 11.97823810577393
v -67.83407592773438 -35.54336929321289 11.97823810577393
v -64.72352600097656 -35.54336929321289 23.57552528381348
v -79.57463073730469 -35.54336929321289 28.98503684997559
v -79.57463073730469 12.10526466369629 28.98503684997559
v -64.72352600097656 12.10526371002197 23.57552528381348
v -59.64638137817383 -35.54336929321289 34.45648193359375
v -73.33251953125 -35.54336929321289 42.36267852783203
v -73.33251190185547 12.10526466369629 42.36267852783203
v -59.64638137817383 12.10526371002197 34.45648193359375
v -52.75691604614258 -35.54336929321289 44.29049682617188
v -64.86222839355469 -35.54336929321289 54.45315170288086
v -64.86222839355469 12.10526371002197 54.45315170288086
v -52.75691604614258 12.10526371002197 44.29049682617188
v -44.26445388793945 -35.54336929321289 52.77876663208008
v -54.42113494873047 -35.54336929321289 64.88909149169922
v -54.42113494873047 12.10526371002197 64.88909149169922
v -44.26445388793945 12.10526371002197 52.77876663208008
v -34.42704010009766 -35.54336929321289 59.66337966918945
v -42.32648086547852 -35.54336929321289 73.35341644287109
v -42.32648086547852 12.10526371002197 73.35341644287109
v -34.42704010009766 12.10526371002197 59.66337966918945
v -23.54358100891113 -35.54336929321289 64.73515319824219
v -28.94576072692871 -35.54336929321289 79.58892822265625
v -28.94576072692871 12.10526371002197 79.58892822265625
v -23.5435791015625 12.10526371002197 64.73515319824219
v -11.94475936889648 -35.54336929321289 67.83998107910156
v -14.68553829193115 -35.54336929321289 83.40617370605469
v -14.68553733825684 12.10526371002197 83.40617370605469
v -11.94475841522217 12.10526371002197 67.83998107910156
v 0.01699734665453 -35.54336929321289 68.88352203369141
v 0.02089758589864 -35.54336929321289 84.68916320800781
v 0.02089829742908 12.10526275634766 84.68916320800781
v 0.01699805632234 12.10526275634766 68.88352203369141
v 11.97823715209961 -35.54336929321289 67.83407592773438
v 14.72669887542725 -35.54336929321289 83.39891052246094
v 14.72669887542725 12.10526275634766 83.39891052246094
v 11.97823810577393 12.10526275634766 67.83407592773438
v 23.57552528381348 -35.54336929321289 64.72352600097656
v 28.98503684997559 -35.54336929321289 79.57463073730469
v 28.98503684997559 12.10526275634766 79.57463073730469
v 23.57552528381348 12.10526275634766 64.72352600097656
v 34.45648193359375 -35.54336929321289 59.64638137817383
v 42.36267852783203 -35.54336929321289 73.33251190185547
v 42.36267852783203 12.10526275634766 73.33251190185547
v 34.45648193359375 12.10526275634766 59.64638137817383
v 44.29049682617188 -35.54336929321289 52.75691604614258
v 54.45315170288086 -35.54336929321289 64.86222839355469
v 54.45315170288086 12.10526275634766 64.86222839355469
v 44.29049682617188 12.10526275634766 52.75691604614258
v 64.88909149169922 -35.54336929321289 54.42113494873047
v 64.88909149169922 12.10526180267334 54.42113494873047
v 52.77876663208008 12.10526275634766 44.26445388793945
v 52.77876663208008 -35.54336929321289 44.26445388793945
v 59.66337966918945 -35.54336929321289 34.42704010009766
v 73.35341644287109 -35.54336929321289 42.32648086547852
v 73.35341644287109 12.10526180267334 42.32648086547852
v 59.66337966918945 12.10526180267334 34.42704010009766
v 64.73515319824219 -35.54336929321289 23.5435791015625
v 79.58892822265625 -35.54337310791016 28.94576072692871
v 79.58892822265625 12.10526180267334 28.94576072692871
v 64.73515319824219 12.10526180267334 23.5435791015625
# 100 vertices

vn 0 1 0
vn 0.49978631734848 -0.00000000334652 -0.8661487698555
vn 0.34178832173347 -0.00000000594412 -0.93977695703506
vn -0.00000000745058 -1 0.00000000000184
vn 0 -1 0
vn -0.34178832173347 0.00000000452176 0.93977695703506
vn -0.173405200243 0.00000000179751 0.98485058546066
vn 0.00000003584241 1 0.00000000345234
vn 0.17340505123138 -0.00000000345244 -0.98485058546066
vn 0.00024694294552 0.00000000010899 0.99999994039536
vn -0.00024684573873 -0.00000000010985 -0.99999994039536
vn 0.1738912910223 -0.00000000032754 0.98476487398148
vn -0.17389108240604 0.00000000204618 -0.98476487398148
vn 0.3422520160675 0 0.93960821628571
vn -0.3422520160675 0.00000000130119 -0.93960821628571
vn 0.50021368265152 0 0.86590200662613
vn -0.50021368265152 0 -0.86590200662613
vn 0.64297658205032 0 0.76588582992554
vn 0.00000002112761 1 -0.00000000171746
vn -0.64297658205032 0 -0.76588582992554
vn 0.76620298624039 0 0.6425986289978
vn 0.00000004634176 1 -0.00000000830749
vn -0.76620310544968 0 -0.64259845018387
vn -0.00000008731018 -1 0.00000003058509
vn 0.86614871025085 0 0.49978640675545
vn 0.00000002521415 1 -0.00000000659004
vn -0.8661487698555 0 -0.49978628754616
vn -0.00000017462037 -1 0.00000006117018
vn 0.90641206502914 0 0.42239460349083
vn -0.9064120054245 0 -0.42239472270012
vn 0.34178823232651 0 -0.93977701663971
vn 0.98476487398148 -0.0000000098549 -0.17389123141766
vn -0.25905731320381 0.00000000259248 -0.9658619761467
vn -0.34225204586983 0.00000000130119 -0.93960821628571
vn 0.25905731320381 0 0.9658619761467
vn -0.76620298624039 0 -0.6425986289978
vn 0.00000002050839 1 -0.00000000536013
vn 0.76620310544968 0 0.64259845018387
vn -0.86614871025085 0 -0.4997863471508
vn 0.00000004795821 1 0.00000000743169
vn 0.8661487698555 0 0.49978628754616
vn -0.93977695703506 0 -0.34178826212883
vn 0.00000005670389 1 0.00000002062269
vn 0.93977695703506 0 0.34178832173347
vn -0.98485058546066 0 -0.17340518534184
vn 0.00000005942351 1 0.00000001046285
vn 0.98485058546066 0 0.17340505123138
vn -0.99999994039536 0 0.00024694294552
vn 0.0000000603376 1 -0.0000000000149
vn 0.99999994039536 -0.00000000000086 -0.00024684573873
vn -0.98476487398148 0 0.17389127612114
vn 0.00000005941836 1 -0.00000001049218
vn 0.98476487398148 -0.00000000000086 -0.17389109730721
vn -0.93960821628571 0.00000003538547 0.34225189685822
vn 0.00000005669371 1 -0.00000002065067
vn 0.93960821628571 0 -0.3422520160675
vn -0.86590200662613 0.00000006829524 0.50021368265152
vn 0.00000005026905 1 -0.00000000907683
vn 0.86590200662613 0 -0.50021368265152
vn -0.76588577032089 0.00000003290977 0.64297670125961
vn 0.00000002282555 1 0.00000000372853
vn 0.76588582992554 0 -0.64297658205032
vn -0.6425986289978 0 0.76620298624039
vn 0.64259845018387 0 -0.76620310544968
vn -0.49978640675545 0.00000000316078 0.86614871025085
# 65 normals

vt 0.25 0.06698727607727 0
vt 0.29665780067444 0.14780104160309 0
vt 0.3609057366848 0.11784172058105 0
vt 0.32898992300034 0.03015375137329 0
vt 0.66666668653488 0 0
vt 0.66666668653488 1 0
vt 0.69444441795349 1 0
vt 0.69444441795349 0 0
vt 0.63909423351288 0.11784172058105 0
vt 0.67101007699966 0.03015375137329 0
vt 0.58682405948639 0.00759613513947 0
vt 0.5706200003624 0.099494099617 0
vt 0.72222220897675 1 0
vt 0.72222220897675 0 0
vt 0.4293799996376 0.099494099617 0
vt 0.41317591071129 0.00759613513947 0
vt 0.5 0 0
vt 0.5 0.09331560134888 0
vt 0.75 1 0
vt 0.75 0 0
vt 0.77777779102325 1 0
vt 0.77777779102325 0 0
vt 0.80555558204651 1 0
vt 0.80555558204651 0 0
vt 0.83333331346512 1 0
vt 0.83333331346512 0 0
vt 0.70334219932556 0.14780104160309 0
vt 0.75 0.06698727607727 0
vt 0.17860619723797 0.11697781085968 0
vt 0.23858830332756 0.18846166133881 0
vt 0.86111110448837 1 0
vt 0.86111110448837 0 0
vt 0.76141172647476 0.18846166133881 0
vt 0.82139378786087 0.11697781085968 0
vt 0.11697778105736 0.17860627174377 0
vt 0.18846166133881 0.23858833312988 0
vt 0.88888889551163 1 0
vt 0.88888889551163 0 0
vt 0.81153833866119 0.23858833312988 0
vt 0.88302224874496 0.17860627174377 0
vt 0.06698729842901 0.25 0
vt 0.14780096709728 0.29665780067444 0
vt 0.91666668653488 1 0
vt 0.91666668653488 0 0
vt 0.85219901800156 0.29665780067444 0
vt 0.93301272392273 0.25 0
vt 0.030153689906 0.32898998260498 0
vt 0.11784165352583 0.36090576648712 0
vt 0.94444441795349 1 0
vt 0.94444441795349 0 0
vt 0.88215833902359 0.36090576648712 0
vt 0.96984630823135 0.32898998260498 0
vt 0 1 0
vt 0 0 0
vt 1 0 0
vt 1 1 0
vt 0.5706200003624 0.90050595998764 0
vt 0.58682405948639 0.99240386486053 0
vt 0.67101007699966 0.96984630823135 0
vt 0.63909423351288 0.88215833902359 0
vt 0.27777779102325 0 0
vt 0.27777779102325 1 0
vt 0.30555555224419 1 0
vt 0.30555555224419 0 0
vt 0.41317591071129 0.99240386486053 0
vt 0.4293799996376 0.90050595998764 0
vt 0.3609057366848 0.88215833902359 0
vt 0.32898992300034 0.96984630823135 0
vt 0.75 0.93301272392273 0
vt 0.70334219932556 0.8521990776062 0
vt 0.33333334326744 1 0
vt 0.33333334326744 0 0
vt 0.29665780067444 0.8521990776062 0
vt 0.25 0.93301272392273 0
vt 0.82139378786087 0.88302218914032 0
vt 0.76141172647476 0.81153833866119 0
vt 0.36111110448837 1 0
vt 0.36111110448837 0 0
vt 0.23858830332756 0.81153833866119 0
vt 0.17860619723797 0.88302218914032 0
vt 0.88302224874496 0.82139384746552 0
vt 0.81153833866119 0.76141166687012 0
vt 0.38888889551163 1 0
vt 0.38888889551163 0 0
vt 0.18846166133881 0.76141166687012 0
vt 0.11697778105736 0.82139384746552 0
vt 0.93301272392273 0.75 0
vt 0.85219901800156 0.70334219932556 0
vt 0.41666665673256 1 0
vt 0.41666665673256 0 0
vt 0.14780096709728 0.70334219932556 0
vt 0.06698729842901 0.75 0
vt 0.96984630823135 0.67101007699966 0
vt 0.88215833902359 0.63909429311752 0
vt 0.44444444775581 1 0
vt 0.44444444775581 0 0
vt 0.11784165352583 0.63909429311752 0
vt 0.030153689906 0.67101007699966 0
vt 0.99240386486053 0.58682411909103 0
vt 0.90050595998764 0.5706200003624 0
vt 0.47222220897675 1 0
vt 0.47222220897675 0 0
vt 0.09949403256178 0.5706200003624 0
vt 0.00759612349793 0.58682411909103 0
vt 1 0.5 0
vt 0.90668439865112 0.5 0
vt 0.5 1 0
vt 0.09331558644772 0.5 0
vt 0 0.5 0
vt 0.99240386486053 0.41317594051361 0
vt 0.90050595998764 0.42938005924225 0
vt 0.52777779102325 1 0
vt 0.52777779102325 0 0
vt 0.09949403256178 0.42938005924225 0
vt 0.00759612349793 0.41317594051361 0
vt 0.55555558204651 1 0
vt 0.55555558204651 0 0
vt 0.58333331346512 1 0
vt 0.58333331346512 0 0
vt 0.61111110448837 1 0
vt 0.61111110448837 0 0
vt 0.63888889551163 1 0
vt 0.63888889551163 0 0
# 123 texture coordinates

o SM_GroundCircle
usemtl default
f 63/4/1 64/3/1 60/2/1 59/1/1
f 64/8/3 61/7/3 57/6/2 60/5/2
f 65/12/5 66/11/5 62/10/4 61/9/4
f 66/14/7 67/13/7 63/7/6 62/8/6
f 67/16/8 68/15/8 64/3/1 63/4/1
f 68/14/9 65/13/9 61/7/3 64/8/3
f 69/18/5 70/17/5 66/11/5 65/12/5
f 70/20/10 71/19/10 67/13/7 66/14/7
f 71/17/8 72/18/8 68/15/8 67/16/8
f 72/20/11 69/19/11 65/13/9 68/14/9
f 73/15/5 74/16/5 70/17/5 69/18/5
f 74/22/12 75/21/12 71/19/10 70/20/10
f 75/11/1 76/12/1 72/18/8 71/17/8
f 76/22/13 73/21/13 69/19/11 72/20/11
f 77/3/5 78/4/5 74/16/5 73/15/5
f 78/24/14 79/23/14 75/21/12 74/22/12
f 79/10/1 80/9/1 76/12/1 75/11/1
f 80/24/15 77/23/15 73/21/13 76/22/13
f 81/2/5 82/1/5 78/4/5 77/3/5
f 82/26/16 83/25/16 79/23/14 78/24/14
f 83/28/1 84/27/1 80/9/1 79/10/1
f 84/26/17 81/25/17 77/23/15 80/24/15
f 85/30/5 86/29/5 82/1/5 81/2/5
f 86/32/18 87/31/18 83/25/16 82/26/16
f 87/34/19 88/33/19 84/27/1 83/28/1
f 88/32/20 85/31/20 81/25/17 84/26/17
f 92/36/5 89/35/5 86/29/5 85/30/5
f 89/38/21 90/37/21 87/31/18 86/32/18
f 90/40/22 91/39/22 88/33/19 87/34/19
f 91/38/23 92/37/23 85/31/20 88/32/20
f 93/42/24 94/41/24 89/35/5 92/36/5
f 94/44/25 95/43/25 90/37/21 89/38/21
f 95/46/26 96/45/26 91/39/22 90/40/22
f 96/44/27 93/43/27 92/37/23 91/38/23
f 97/48/28 98/47/28 94/41/24 93/42/24
f 98/50/29 99/49/29 95/43/25 94/44/25
f 99/52/1 100/51/1 96/45/26 95/46/26
f 100/50/30 97/49/30 93/43/27 96/44/27
f 100/56/31 99/55/31 98/54/31 97/53/31
f 3/54/32 4/55/32 1/56/32 2/53/32
f 8/60/5 5/59/5 1/58/5 4/57/5
f 5/64/34 6/63/34 2/62/33 1/61/33
f 6/68/1 7/67/1 3/66/1 2/65/1
f 7/64/14 8/63/14 4/62/35 3/61/35
f 12/70/5 9/69/5 5/59/5 8/60/5
f 9/72/17 10/71/17 6/63/34 5/64/34
f 10/74/1 11/73/1 7/67/1 6/68/1
f 11/72/16 12/71/16 8/63/14 7/64/14
f 16/76/5 13/75/5 9/69/5 12/70/5
f 13/78/20 14/77/20 10/71/17 9/72/17
f 14/80/1 15/79/1 11/73/1 10/74/1
f 15/78/18 16/77/18 12/71/16 11/72/16
f 20/82/5 17/81/5 13/75/5 16/76/5
f 17/84/36 18/83/36 14/77/20 13/78/20
f 18/86/37 19/85/37 15/79/1 14/80/1
f 19/84/38 20/83/38 16/77/18 15/78/18
f 24/88/5 21/87/5 17/81/5 20/82/5
f 21/90/39 22/89/39 18/83/36 17/84/36
f 22/92/40 23/91/40 19/85/37 18/86/37
f 23/90/41 24/89/41 20/83/38 19/84/38
f 25/94/5 26/93/5 21/87/5 24/88/5
f 26/96/42 27/95/42 22/89/39 21/90/39
f 27/98/43 28/97/43 23/91/40 22/92/40
f 28/96/44 25/95/44 24/89/41 23/90/41
f 29/100/5 30/99/5 26/93/5 25/94/5
f 30/102/45 31/101/45 27/95/42 26/96/42
f 31/104/46 32/103/46 28/97/43 27/98/43
f 32/102/47 29/101/47 25/95/44 28/96/44
f 36/106/5 33/105/5 30/99/5 29/100/5
f 33/17/48 34/107/48 31/101/45 30/102/45
f 34/109/49 35/108/49 32/103/46 31/104/46
f 35/17/50 36/107/50 29/101/47 32/102/47
f 40/111/5 37/110/5 33/105/5 36/106/5
f 37/113/51 38/112/51 34/107/48 33/17/48
f 38/115/52 39/114/52 35/108/49 34/109/49
f 39/113/53 40/112/53 36/107/50 35/17/50
f 41/51/5 42/52/5 37/110/5 40/111/5
f 42/117/54 43/116/54 38/112/51 37/113/51
f 43/47/55 44/48/55 39/114/52 38/115/52
f 44/117/56 41/116/56 40/112/53 39/113/53
f 45/45/5 46/46/5 42/52/5 41/51/5
f 46/119/57 47/118/57 43/116/54 42/117/54
f 47/41/58 48/42/58 44/48/55 43/47/55
f 48/119/59 45/118/59 41/116/56 44/117/56
f 49/39/5 50/40/5 46/46/5 45/45/5
f 50/121/60 51/120/60 47/118/57 46/119/57
f 51/35/61 52/36/61 48/42/58 47/41/58
f 52/121/62 49/120/62 45/118/59 48/119/59
f 53/33/5 54/34/5 50/40/5 49/39/5
f 54/123/63 55/122/63 51/120/60 50/121/60
f 55/29/1 56/30/1 52/36/61 51/35/61
f 56/123/64 53/122/64 49/120/62 52/121/62
f 57/27/4 58/28/4 54/34/5 53/33/5
f 58/5/65 59/6/65 55/122/63 54/123/63
f 59/1/1 60/2/1 56/30/1 55/29/1
f 60/5/2 57/6/2 53/122/64 56/123/64
f 61/9/4 62/10/4 58/28/4 57/27/4
f 62/8/6 63/7/6 59/6/65 58/5/65

